<?xml version="1.0" encoding="utf-8"?>
<!-- Generator: Adobe Illustrator 15.0.0, SVG Export Plug-In . SVG Version: 6.00 Build 0)  -->
<!DOCTYPE svg PUBLIC "-//W3C//DTD SVG 1.1//EN" "http://www.w3.org/Graphics/SVG/1.1/DTD/svg11.dtd">
<svg version="1.1" id="Capa_1" xmlns="http://www.w3.org/2000/svg" xmlns:xlink="http://www.w3.org/1999/xlink" x="0px" y="0px"
	 width="100px" height="100px" viewBox="0 0 100 100" enable-background="new 0 0 100 100" xml:space="preserve">
<path fill="#EDEDED" d="M50,0c27.613,0,50,22.386,50,50s-22.387,50-50,50S0,77.614,0,50S22.387,0,50,0z"/>
<g>
	<polygon fill="#FFFFFF" points="78.838,31.243 61.33,13.737 22.567,13.737 22.567,86.264 78.838,86.264 	"/>
	<circle fill="#99CCFF" cx="37.163" cy="26.412" r="10.143"/>
	<path fill="#3366FF" d="M32.759,18.768c-0.375,0.454,0.104,1.092-0.392,2.298c-0.273,0.668-0.45,1.407-0.532,2.192
		c-0.487,0.261-0.825,0.768-0.825,1.354v0.771c0,0.69,0.463,1.271,1.09,1.465c0.417,1.559,1.272,2.806,2.763,3.447v0.883
		c0,0.225-0.128,0.432-0.331,0.531l-2.975,1.465c-0.504,0.274-0.868,0.716-1.088,1.224c1.89,1.352,4.201,2.155,6.703,2.155
		c2.492,0,4.797-0.797,6.684-2.14c-0.234-0.516-0.621-0.958-1.146-1.221l-2.902-1.483c-0.196-0.101-0.322-0.306-0.322-0.528v-0.889
		c1.489-0.642,2.347-1.888,2.762-3.448c0.628-0.194,1.09-0.775,1.09-1.465v-0.771c0-0.591-0.339-1.1-0.83-1.358
		c0.083-3.373-0.938-4.218-5.332-4.069c-0.072,0.002-0.676,0.029-1.431,0.062c-0.245,0.011-1.132-0.805-1.314-0.676
		c-0.382,0.271-0.185,0.455-0.442,0.749C33.72,19.623,32.994,18.483,32.759,18.768z"/>
	<path fill="#3F9BFF" d="M27.786,44.191v1.528h45.833v-1.528H27.786z M27.786,53.358h45.833v-1.527H27.786V53.358z M27.786,60.997
		h45.833V59.47H27.786V60.997z"/>
	<path fill="#1F32FF" d="M65.436,65.082c-0.32,0.428-0.746,1.929-1.057,2.201c-0.15-0.125-0.398-0.432-0.549-0.558
		c-0.355-0.298-0.869,0.212-0.512,0.513c0.338,0.283,0.678,0.566,1.016,0.85c0.24,0.201,0.605,0.076,0.617-0.256
		c0.377-0.864,0.617-1.686,0.85-2.125C65.984,65.383,65.85,64.867,65.436,65.082"/>
	<g>
		
			<line fill="#FF0080" stroke="#000000" stroke-width="0.25" stroke-miterlimit="10" x1="55.625" y1="80.093" x2="67.037" y2="80.093"/>
		<path fill="#0027FF" d="M57.156,79.062c0.479-0.814,0.727-1.745,1.158-2.58c-0.014,0.487-0.146,0.942-0.158,1.427
			c-0.006,0.237-0.092,0.582-0.035,0.784c0.68-0.188,1.385-0.757,1.904-1.219c0.168,0.483-0.223,0.958,0.369,1.301
			c0.475,0.275,0.684-0.229,1.047-0.496c0.688-0.505,1.57-0.637,2.264-1.114c0.141,0.349,0.109,0.849,0.139,1.228
			c0.031,0.403,0,0.432,0.375,0.42c0.336-0.011,0.607-0.09,0.898-0.122c0.363,0.284-0.881,0.942-1.213,0.811
			c-0.26-0.104-0.252-0.438-0.379-0.657c-0.238-0.407,0.063-0.864-0.369-0.844c-0.414,0.02-1.094,0.362-1.336,0.717
			c-0.283,0.417-0.424,0.451-0.965,0.497c-0.258,0.021-0.629,0.058-0.881-0.002c-0.42-0.099-0.133-0.349-0.35-0.617
			c-0.039-0.048-0.051-0.091-0.096-0.131c-0.197,0.194-1.715,1.147-1.814,0.572c-0.221-0.01-0.389,0.018-0.59,0.058"/>
	</g>
	<g>
		<path fill="#3399FF" d="M47.363,70.608H30.328c-0.553,0-1.002,0.448-1.002,1.003c0,0.554,0.449,1.002,1.002,1.002h17.035
			c0.553,0,1.002-0.448,1.002-1.002C48.365,71.057,47.916,70.608,47.363,70.608z"/>
		<path fill="#3399FF" d="M58.385,66.6c0-0.553-0.449-1.002-1.002-1.002H50.37c-0.554,0-1.002,0.449-1.002,1.002
			c0,0.555,0.448,1.002,1.002,1.002h7.013C57.936,67.602,58.385,67.154,58.385,66.6z"/>
		<path fill="#3399FF" d="M35.338,67.602h10.021c0.553,0,1.002-0.447,1.002-1.002c0-0.553-0.449-1.002-1.002-1.002H35.338
			c-0.553,0-1.002,0.449-1.002,1.002C34.336,67.154,34.786,67.602,35.338,67.602z"/>
		<path fill="#3399FF" d="M30.328,67.602c0.271,0,0.521-0.109,0.711-0.289c0.181-0.191,0.292-0.451,0.292-0.713
			s-0.111-0.521-0.292-0.711c-0.37-0.371-1.062-0.36-1.422,0c-0.181,0.189-0.291,0.449-0.291,0.711s0.11,0.521,0.291,0.702
			C29.797,67.492,30.057,67.602,30.328,67.602z"/>
		<path fill="#3399FF" d="M51.662,70.898c-0.182,0.189-0.291,0.441-0.291,0.713c0,0.27,0.1,0.52,0.291,0.711
			c0.189,0.18,0.451,0.291,0.711,0.291s0.521-0.111,0.711-0.291c0.191-0.191,0.291-0.441,0.291-0.711
			c0-0.262-0.109-0.523-0.291-0.713C52.703,70.529,52.043,70.529,51.662,70.898z"/>
		<path fill="#3399FF" d="M56.672,70.898c-0.182,0.189-0.291,0.441-0.291,0.713c0,0.27,0.1,0.52,0.291,0.711
			c0.191,0.18,0.451,0.291,0.711,0.291c0.262,0,0.521-0.111,0.713-0.302c0.189-0.19,0.289-0.44,0.289-0.7
			c0-0.262-0.109-0.523-0.289-0.713C57.713,70.529,57.053,70.529,56.672,70.898z"/>
	</g>
	<polygon fill="#FFFFCC" points="61.33,13.737 61.33,31.243 78.838,31.243 	"/>
	<path fill="#1F32FF" d="M65.436,69.51c-0.32,0.428-0.746,1.928-1.057,2.201c-0.15-0.126-0.398-0.432-0.549-0.559
		c-0.355-0.297-0.869,0.213-0.512,0.513c0.338,0.283,0.678,0.567,1.016,0.851c0.24,0.201,0.605,0.076,0.617-0.256
		c0.377-0.864,0.617-1.686,0.85-2.125C65.984,69.811,65.85,69.295,65.436,69.51"/>
</g>
</svg>
