<?xml version="1.0" encoding="utf-8"?>
<!-- Generator: Adobe Illustrator 15.0.0, SVG Export Plug-In . SVG Version: 6.00 Build 0)  -->
<!DOCTYPE svg PUBLIC "-//W3C//DTD SVG 1.1//EN" "http://www.w3.org/Graphics/SVG/1.1/DTD/svg11.dtd">
<svg version="1.1" id="Capa_1" xmlns="http://www.w3.org/2000/svg" xmlns:xlink="http://www.w3.org/1999/xlink" x="0px" y="0px"
	 width="100px" height="100px" viewBox="0 0 100 100" enable-background="new 0 0 100 100" xml:space="preserve">
<path fill="#FFCCCC" d="M50,0C22.385,0,0,22.384,0,50c0,27.614,22.386,50,50,50c27.613,0,50-22.387,50-50C100,22.384,77.613,0,50,0z
	"/>
<g>
	<path fill="#0F9D59" d="M55.529,71.533l14.015,0.003l-0.015-0.032L50.393,14.077v55.269C51.694,70.688,53.507,71.533,55.529,71.533
		"/>
	<path fill="#0A6E3D" d="M40.766,42.766l7.998,24.003c0.002,0.004,0.002,0.009,0.004,0.018c0.349,0.975,0.913,1.834,1.618,2.563
		V14.081l-0.021-0.054L40.766,42.766z"/>
	<path fill="#4284F4" d="M31.172,14.025l-0.005,0.02l-0.007-0.02L12.002,71.506l-0.014,0.03h14.014c2.021,0,3.837-0.842,5.14-2.194
		c0.702-0.726,1.266-1.585,1.615-2.56c0.002-0.01,0.002-0.014,0.004-0.014L50.37,14.018H31.167v0.007H31.172z"/>
</g>
<g>
	<path fill="#EFEFEF" d="M63.133,78.897c-0.846,0-1.447-0.652-1.653-0.78c-0.661-0.406-0.499-0.52-1.694-0.876l-3.347,0.009
		c-0.417,0-0.755-0.336-0.755-0.748V60.574c0-0.413,0.338-0.747,0.755-0.747h4.427c0.104-0.056,0.43-0.333,1.006-0.983
		c1.017-1.146,1.916-2.703,2.786-4.084c0.703-1.115,1.368-2.17,2.069-3.039c0.957-1.192,1.56-1.629,2.141-2.052
		c0.598-0.433,0.477-0.531,1.664-2.051c1.906-2.435,2.166-3.984,2.418-5.482c0.045-0.265,0.092-0.54,0.145-0.813
		c0.215-1.083,1.166-2.204,2.385-2.203c0.439-0.001,0.867,0.144,1.273,0.429c1.557,1.094,2.375,4.275,2.066,6.388
		c-0.316,2.171-1.307,4.977-2.223,5.993c-0.793,0.884-1.168,1.758-1.002,3.104c0.076,0.641,1.063,0.666,1.105,0.668l6.164,0.022
		c1.781,0.015,5.148,0.572,5.148,4.015c0,1.569-0.639,2.545-1.381,3.113c0.707,0.628,1.258,1.443,1.061,2.991
		c-0.191,1.501-0.936,2.397-1.803,2.857c0.48,0.639,0.803,1.563,0.592,2.815c-0.203,1.206-0.941,2.046-1.697,2.454
		c0.357,0.545,0.578,1.38,0.393,2.377c-0.443,2.339-2.469,2.475-3.334,2.533l-0.266,0.018H63.133z"/>
	<path fill="#DCDCDC" d="M86.633,62.852c0.742-0.568,1.381-1.544,1.381-3.113c-0.002-3.442-3.367-4-5.15-4.015L76.699,55.7
		c-0.043-0.002-1.029-0.026-1.105-0.669c-0.164-1.346,0.209-2.221,1.004-3.104c0.914-1.016,1.904-3.822,2.223-5.993
		c0.309-2.113-0.51-5.294-2.068-6.388c-0.404-0.285-0.834-0.43-1.273-0.429c-0.457,0-0.879,0.158-1.236,0.415l0.023,0.014
		c1.559,1.094,2.377,4.275,2.068,6.388c-0.318,2.171-1.309,4.977-2.223,5.993c-0.795,0.883-1.168,1.758-1.004,3.104
		c0.076,0.641,1.063,0.667,1.105,0.669l6.164,0.022c1.783,0.016,5.148,0.572,5.15,4.014c0,1.57-0.639,2.546-1.381,3.114
		c0.705,0.628,1.256,1.444,1.059,2.991c-0.189,1.502-0.934,2.398-1.801,2.858c0.479,0.638,0.801,1.562,0.59,2.814
		c-0.203,1.206-0.939,2.046-1.697,2.454c0.357,0.545,0.58,1.381,0.393,2.378c-0.441,2.339-2.467,2.473-3.332,2.532l-0.268,0.018
		h2.486l0.268-0.018c0.865-0.058,2.889-0.193,3.332-2.532c0.188-0.997-0.035-1.833-0.393-2.378c0.758-0.408,1.494-1.248,1.697-2.454
		c0.211-1.253-0.111-2.177-0.59-2.814c0.867-0.461,1.609-1.356,1.801-2.858C87.889,64.295,87.338,63.48,86.633,62.852z
		 M56.412,77.244l0.026,0.006l0.877-0.003l-0.017-0.006L56.412,77.244z M86.633,62.852c0.742-0.568,1.381-1.544,1.381-3.113
		c-0.002-3.442-3.367-4-5.15-4.015L76.699,55.7c-0.043-0.002-1.029-0.026-1.105-0.669c-0.164-1.346,0.209-2.221,1.004-3.104
		c0.914-1.016,1.904-3.822,2.223-5.993c0.309-2.113-0.51-5.294-2.068-6.388c-0.404-0.285-0.834-0.43-1.273-0.429
		c-0.457,0-0.879,0.158-1.236,0.415l0.023,0.014c1.559,1.094,2.377,4.275,2.068,6.388c-0.318,2.171-1.309,4.977-2.223,5.993
		c-0.795,0.883-1.168,1.758-1.004,3.104c0.076,0.641,1.063,0.667,1.105,0.669l6.164,0.022c1.783,0.016,5.148,0.572,5.15,4.014
		c0,1.57-0.639,2.546-1.381,3.114c0.705,0.628,1.256,1.444,1.059,2.991c-0.189,1.502-0.934,2.398-1.801,2.858
		c0.479,0.638,0.801,1.562,0.59,2.814c-0.203,1.206-0.939,2.046-1.697,2.454c0.357,0.545,0.58,1.381,0.393,2.378
		c-0.441,2.339-2.467,2.473-3.332,2.532l-0.268,0.018h2.486l0.268-0.018c0.865-0.058,2.889-0.193,3.332-2.532
		c0.188-0.997-0.035-1.833-0.393-2.378c0.758-0.408,1.494-1.248,1.697-2.454c0.211-1.253-0.111-2.177-0.59-2.814
		c0.867-0.461,1.609-1.356,1.801-2.858C87.889,64.295,87.338,63.48,86.633,62.852z M56.412,77.244l0.026,0.006l0.877-0.003
		l-0.017-0.006L56.412,77.244z"/>
	<path fill="#D7D7D7" d="M55.685,59.85h2.501v17.405h-2.501V59.85z"/>
	<path fill="#5879BD" d="M54.593,79.735H45.42c-1.056,0-1.917-0.862-1.917-1.921l-2.738-17.719c0-1.061,0.859-1.921,1.916-1.921
		h11.911c1.056,0,1.916,0.86,1.916,1.921v17.719C56.508,78.873,55.648,79.735,54.593,79.735z"/>
	<path fill="#FFFFFF" d="M51.537,72.28c0.916,0,1.658,0.741,1.658,1.656c0,0.914-0.742,1.655-1.658,1.655s-1.659-0.741-1.659-1.655
		C49.878,73.021,50.62,72.28,51.537,72.28z"/>
	<path fill="#5170AE" d="M56.25,78.077h-9.172c-1.056,0-1.916-0.861-1.916-1.92l-2.738-17.719l0.024-0.239
		c-0.946,0.117-1.682,0.917-1.682,1.896l2.738,17.719c0,1.059,0.86,1.921,1.917,1.921h9.172c0.974,0,1.772-0.737,1.891-1.682
		L56.25,78.077z"/>
	<path fill="#48639A" d="M51.537,75.592c-0.916,0-1.659-0.741-1.659-1.655c0-0.241,0.054-0.47,0.148-0.677
		c-0.575,0.259-0.977,0.835-0.977,1.506c0,0.914,0.743,1.655,1.659,1.655c0.674,0,1.251-0.403,1.511-0.979
		C52.01,75.537,51.78,75.592,51.537,75.592z"/>
</g>
</svg>
